<svg xmlns="http://www.w3.org/2000/svg" viewBox="0 0 1200 900" width="1200" height="900" role="img" aria-label="교육 수료식" font-family="'Pretendard Variable',Pretendard,'Apple SD Gothic Neo','Malgun Gothic',sans-serif"><defs><linearGradient id="g" x1="0" y1="0" x2="1" y2="1"><stop offset="0" stop-color="#0d3050"/><stop offset="1" stop-color="#0a2942"/></linearGradient><pattern id="h" width="26" height="26" patternUnits="userSpaceOnUse" patternTransform="rotate(35)"><path d="M0,0 L0,26" stroke="#ffffff" stroke-opacity=".05" stroke-width="1.4"/></pattern></defs><rect width="1200" height="900" fill="url(#g)"/><rect width="1200" height="900" fill="url(#h)"/><circle cx="960" cy="180" r="230" fill="#17a9ad" fill-opacity=".10"/><g transform="translate(600,392) scale(4.4) translate(-40,-40)" fill="none" stroke="#7fd3d6" stroke-width="2.0" stroke-linecap="round" stroke-linejoin="round" opacity=".92"><circle cx="40" cy="32" r="14"/><path d="M32 44l-5 20 13-7 13 7-5-20"/><path d="M40 25l3 6 6 1-4.5 4 1 6-5.5-3-5.5 3 1-6L34 32l6-1z"/></g><rect x="0" y="784" width="1200" height="116" fill="#061726" fill-opacity=".55"/><rect x="62" y="812" width="4" height="34" rx="2" fill="#c9a94e"/><text x="86" y="838" font-size="34" font-weight="700" fill="#ffffff">교육 수료식</text><text x="86" y="872" font-size="22" font-weight="600" fill="#ffffff" fill-opacity=".55">사진 준비 중</text></svg>